<?xml version="1.0" encoding="UTF-8"?>
<svg width="78px" height="20px" viewBox="0 0 78 20" version="1.1" xmlns="http://www.w3.org/2000/svg" xmlns:xlink="http://www.w3.org/1999/xlink">
    <!-- Generator: Sketch 52.5 (67469) - http://www.bohemiancoding.com/sketch -->
    <title>logo-holaluz</title>
    <desc>Created with Sketch.</desc>
    <defs>
        <path d="M53.6157303,14.0678261 L53.6157303,14.9343478 C53.6157303,17.9030435 55.1067284,19.9995652 58.2348579,19.9995652 C59.8144085,19.9995652 61.0707204,19.3304348 61.8018242,18.34 L62.0940912,19.7078261 L65.1057502,19.7078261 L65.1057502,14.0678261 L61.5972373,14.0678261 L61.5972373,14.4386957 C61.5972373,15.8656522 60.6907733,16.9426087 59.2294382,16.9426087 C57.8557832,16.9426087 57.1534699,16.0117391 57.1534699,14.7308696 L57.1534699,14.0678261 L53.6157303,14.0678261 Z M47.6076801,19.7091304 L51.116193,19.7091304 L51.116193,14.0678261 L47.6076801,14.0678261 L47.6076801,19.7091304 Z M33.3590086,14.0678261 L33.3590086,14.4686957 C33.3590086,17.7004348 35.0249306,20 38.2411765,20 C39.7910641,20 40.9897951,19.3591304 41.7200264,18.37 L41.983503,19.7091304 L44.9951619,19.7091304 L44.9951619,14.0678261 L41.486649,14.0678261 L41.486649,14.4386957 C41.486649,15.8656522 40.5801851,16.9426087 39.1184137,16.9426087 C37.6566424,16.9426087 36.8967482,15.8952174 36.8967482,14.4982609 L36.8967482,14.0678261 L33.3590086,14.0678261 Z M27.5974223,19.7091304 L31.105499,19.7091304 L31.105499,14.0678261 L27.5974223,14.0678261 L27.5974223,19.7091304 Z M13.71692,14.0678261 L13.71692,14.2643478 C13.71692,17.7873913 16.0847191,19.9995652 19.5635691,19.9995652 C23.0432915,19.9995652 25.3818638,17.7873913 25.3818638,14.2643478 L25.3818638,14.0678261 L21.8737872,14.0678261 L21.8737872,14.526087 C21.8737872,15.9821739 21.0257766,17.0304348 19.5635691,17.0304348 C18.1017978,17.0304348 17.2542234,15.9826087 17.2542234,14.526087 L17.2542234,14.0678261 L13.71692,14.0678261 Z M8.12676801,19.7091304 L11.6348447,19.7091304 L11.6348447,14.0678261 L8.12676801,14.0678261 L8.12676801,19.7091304 Z M0,19.7091304 L3.53686715,19.7091304 L3.53686715,14.0678261 L0,14.0678261 L0,19.7091304 Z M11.6348447,11.1004348 L11.6348447,10.48 C11.6348447,7.36521739 10.1150562,5.15304348 6.89924653,5.15304348 C5.437039,5.15304348 4.29719762,5.73521739 3.53686715,6.57956522 L3.53686715,0 L0,0 L0,11.1004348 L3.53686715,11.1004348 L3.53686715,10.7426087 C3.53686715,9.28695652 4.44333113,8.20956522 5.90466623,8.20956522 C7.36687376,8.20956522 8.12676801,9.25782609 8.12676801,10.683913 L8.12676801,11.1004348 L11.6348447,11.1004348 Z M25.3814276,11.1004348 L25.3814276,10.8882609 C25.3814276,7.39478261 23.0428553,5.15304348 19.5631328,5.15304348 C16.0842829,5.15304348 13.7164838,7.39478261 13.7164838,10.8882609 L13.7164838,11.1004348 L17.253351,11.1004348 L17.253351,10.6547826 C17.253351,9.19956522 18.1009253,8.12173913 19.5626966,8.12173913 C21.0249042,8.12173913 21.8724785,9.19913043 21.8724785,10.6547826 L21.8724785,11.1 L25.3814276,11.1 L25.3814276,11.1004348 Z M31.1050628,0 L27.5969861,0 L27.5969861,11.1004348 L31.1050628,11.1004348 L31.1050628,0 Z M44.9951619,11.1004348 L44.9951619,5.44391304 L41.983503,5.44391304 L41.7200264,6.7826087 C40.9893589,5.82173913 39.7910641,5.1526087 38.2411765,5.1526087 C35.0253668,5.1526087 33.3590086,7.45217391 33.3590086,10.683913 L33.3590086,11.1004348 L36.896312,11.1004348 L36.896312,10.683913 C36.896312,9.2573913 37.6566424,8.20956522 39.1175413,8.20956522 C40.5797488,8.20956522 41.4857766,9.28695652 41.4857766,10.7426087 L41.4857766,11.1004348 L44.9951619,11.1004348 Z M51.116193,0 L47.6076801,0 L47.6076801,11.1004348 L51.116193,11.1004348 L51.116193,0 Z M57.1530337,5.44391304 L53.6157303,5.44391304 L53.6157303,11.1 L57.1530337,11.1 L57.1530337,5.44391304 Z M65.1053139,5.44391304 L61.5968011,5.44391304 L61.5968011,11.1 L65.1053139,11.1 L65.1053139,5.44391304 Z M75.1305089,11.1004348 L77.5000529,7.48173913 L77.5000529,5.44391304 L67.2096365,5.44391304 L67.2096365,8.32565217 L73.1439656,8.32565217 L71.3127165,11.1 L75.1305089,11.1 L75.1305089,11.1004348 Z M77.6470588,19.7091304 L77.6470588,16.856087 L71.3611368,16.856087 L73.1867151,14.0686957 L69.3540912,14.0686957 L66.9758229,17.6708696 L66.9758229,19.7091304 L77.6470588,19.7091304 Z" id="path-1"></path>
    </defs>
    <g id="Designs" stroke="none" stroke-width="1" fill="none" fill-rule="evenodd">
        <g id="newcontract-contracts" transform="translate(-96.000000, -23.000000)">
            <g id="Group-3" transform="translate(0.000000, -42.000000)">
                <g id="logo-holaluz" transform="translate(96.000000, 65.000000)">
                    <mask id="mask-2" fill="white">
                        <use xlink:href="#path-1"></use>
                    </mask>
                    <use id="SVGID_1_" fill="#FFFFFF" xlink:href="#path-1"></use>
                </g>
            </g>
        </g>
    </g>
</svg>