<?xml version="1.0" encoding="UTF-8"?>
<svg width="20px" height="26px" viewBox="0 0 20 26" version="1.1" xmlns="http://www.w3.org/2000/svg" xmlns:xlink="http://www.w3.org/1999/xlink">
    <!-- Generator: Sketch 52.5 (67469) - http://www.bohemiancoding.com/sketch -->
    <title>Shape</title>
    <desc>Created with Sketch.</desc>
    <g id="Symbols" stroke="none" stroke-width="1" fill="none" fill-rule="evenodd">
        <g id="Row-No-Selected" transform="translate(-1315.000000, -28.000000)" fill="#E6007D" fill-rule="nonzero">
            <g id="Group-4-Copy-8">
                <path d="M1326.66667,34.90625 L1326.66667,28 L1316.25,28 C1315.55729,28 1315,28.5433594 1315,29.21875 L1315,52.78125 C1315,53.4566406 1315.55729,54 1316.25,54 L1333.75,54 C1334.44271,54 1335,53.4566406 1335,52.78125 L1335,36.125 L1327.91667,36.125 C1327.22917,36.125 1326.66667,35.5765625 1326.66667,34.90625 Z M1330.64844,45.639375 L1325.62656,50.4991406 C1325.28021,50.8348047 1324.72083,50.8348047 1324.37448,50.4991406 L1319.3526,45.639375 C1318.82396,45.1280078 1319.19479,44.25 1319.93854,44.25 L1323.33333,44.25 L1323.33333,40.1875 C1323.33333,39.7385938 1323.70625,39.375 1324.16667,39.375 L1325.83333,39.375 C1326.29375,39.375 1326.66667,39.7385938 1326.66667,40.1875 L1326.66667,44.25 L1330.06146,44.25 C1330.80521,44.25 1331.17604,45.1280078 1330.64844,45.639375 Z M1334.63542,33.3320313 L1329.53646,28.3554688 C1329.30208,28.1269531 1328.98438,28 1328.65104,28 L1328.33333,28 L1328.33333,34.5 L1335,34.5 L1335,34.1902344 C1335,33.8703125 1334.86979,33.5605469 1334.63542,33.3320313 Z" id="Shape" transform="translate(1325.000000, 41.000000) scale(-1, 1) translate(-1325.000000, -41.000000) "></path>
            </g>
        </g>
    </g>
</svg>