<svg viewBox="0 0 20 20" xmlns="http://www.w3.org/2000/svg">
<path fill="#296C89" fill-rule="evenodd" clip-rule="evenodd" d="M10 0C4.48 0 0 4.48 0 10C0 15.52 4.48 20 10 20C15.52 20 20 15.52 20 10C20 4.48 15.52 0 10 0ZM12.3634 14.7247V13.3484C12.3634 13.2682 12.3378 13.2022 12.2867 13.1506C12.2355 13.099 12.1702 13.0732 12.0907 13.0732H11.2725V8.66902C11.2725 8.58873 11.247 8.52279 11.1958 8.47117C11.1447 8.41956 11.0794 8.39376 10.9998 8.39376H8.27271C8.19317 8.39376 8.12783 8.41956 8.0767 8.47117C8.02557 8.52279 8 8.58873 8 8.66902V10.0453C8 10.1256 8.02557 10.1915 8.0767 10.2432C8.12783 10.2948 8.19317 10.3206 8.27271 10.3206H9.09084V13.0732H8.27271C8.19317 13.0732 8.12783 13.099 8.0767 13.1506C8.02557 13.2022 8 13.2682 8 13.3484V14.7247C8 14.805 8.02557 14.871 8.0767 14.9226C8.12783 14.9742 8.19317 15 8.27271 15H12.0907C12.1702 15 12.2355 14.9742 12.2867 14.9226C12.3378 14.871 12.3634 14.805 12.3634 14.7247ZM10.9088 5.27526V6.65156C10.9088 6.73184 10.8833 6.79779 10.8321 6.8494C10.781 6.90101 10.7157 6.92682 10.6361 6.92682H8.99984C8.9203 6.92682 8.85497 6.90101 8.80383 6.8494C8.7527 6.79779 8.72713 6.73184 8.72713 6.65156V5.27526C8.72713 5.19498 8.7527 5.12903 8.80383 5.07742C8.85497 5.02581 8.9203 5 8.99984 5H10.6361C10.7157 5 10.781 5.02581 10.8321 5.07742C10.8833 5.12903 10.9088 5.19498 10.9088 5.27526Z" />
</svg>
