<svg xmlns="http://www.w3.org/2000/svg" viewBox="0 0 16 16">
<path fill="#ffff" d="M16,12.64a4.15,4.15,0,0,1-.11.8,5.32,5.32,0,0,1-.24.78,3.06,3.06,0,0,1-1.39,1.2,4.37,4.37,0,0,1-2.11.58,3.86,3.86,0,0,1-.6,0,4.91,4.91,0,0,1-.66-.14c-.24-.07-.41-.12-.53-.17l-.63-.23-.56-.2a10.49,10.49,0,0,1-2-1,17.21,17.21,0,0,1-3-2.45,17.21,17.21,0,0,1-2.45-3,10.49,10.49,0,0,1-.95-2c0-.07-.09-.25-.2-.56S.39,5.76.35,5.64s-.1-.29-.17-.53A4.91,4.91,0,0,1,0,4.45a3.86,3.86,0,0,1,0-.6A4.37,4.37,0,0,1,.58,1.74,3.06,3.06,0,0,1,1.78.35,5.32,5.32,0,0,1,2.56.11,4.15,4.15,0,0,1,3.36,0,.7.7,0,0,1,3.6,0q.21.08.6.87c.09.14.2.35.35.61s.27.51.39.72.24.42.36.61c0,0,.08.13.19.28a3,3,0,0,1,.25.41.79.79,0,0,1,.08.32,1,1,0,0,1-.33.57,5.24,5.24,0,0,1-.7.63,5.81,5.81,0,0,0-.7.6c-.22.21-.33.38-.33.52a.78.78,0,0,0,.06.26l.09.23.16.27a1.42,1.42,0,0,1,.13.22,12,12,0,0,0,2,2.67,12,12,0,0,0,2.67,2,1.42,1.42,0,0,1,.22.13l.27.16.23.09a.78.78,0,0,0,.26.06c.14,0,.31-.11.52-.33a5.81,5.81,0,0,0,.6-.7,5.24,5.24,0,0,1,.63-.7,1,1,0,0,1,.57-.33.79.79,0,0,1,.32.08,3,3,0,0,1,.41.25l.28.19.61.36.72.39.61.35q.8.39.87.6A.7.7,0,0,1,16,12.64Z"/>
</svg>
