<svg id="Capa_1" data-name="Capa 1" xmlns="http://www.w3.org/2000/svg" viewBox="0 0 18 18">
  <defs>
    <style>
      .cls-1 {
        fill: #505050;
        fill-rule: evenodd;
      }
    </style>
  </defs>
  <title>info</title>
  <path class="cls-1"
    d="M9,0a9,9,0,1,0,9,9A9,9,0,0,0,9,0ZM8.41,4h1.7a.28.28,0,0,1,.27.28V5.7h0v0a.28.28,0,0,1-.29.26H8.38a.28.28,0,0,1-.26-.28V4.26A.28.28,0,0,1,8.41,4Zm2.81,10.12h-4A.28.28,0,0,1,7,13.84V12.4a.27.27,0,0,1,.28-.26h.84V9.3H7.26A.27.27,0,0,1,7,9V7.58a.28.28,0,0,1,.28-.27h2.84a.28.28,0,0,1,.26.29v4.54h.86a.26.26,0,0,1,.26.28v1.44A.27.27,0,0,1,11.22,14.12Z" />
</svg>
