<?xml version="1.0" encoding="UTF-8"?>
<svg width="15px" height="15px" viewBox="0 0 15 15" version="1.1" xmlns="http://www.w3.org/2000/svg" xmlns:xlink="http://www.w3.org/1999/xlink">
    <!-- Generator: Sketch 52.4 (67378) - http://www.bohemiancoding.com/sketch -->
    <title>Shape</title>
    <desc>Created with Sketch.</desc>
    <g id="Page-1" stroke="none" stroke-width="1" fill="none" fill-rule="evenodd">
        <g id="icon-log-out" fill="#E6007D" fill-rule="nonzero">
            <path d="M5.6682906,10.0999145 L6.76495726,11.1965812 L10.6538461,7.30769231 L6.76495726,3.41880342 L5.6682906,4.51547009 L7.67495726,6.52991452 L0.153846154,6.52991452 L0.153846154,8.08547008 L7.67495726,8.08547008 L5.6682906,10.0999145 Z M12.5982906,0.307692308 L1.70940171,0.307692308 C0.846068375,0.307692308 0.153846154,1.00769231 0.153846154,1.86324786 L0.153846154,4.97435897 L1.70940171,4.97435897 L1.70940171,1.86324786 L12.5982906,1.86324786 L12.5982906,12.7521367 L1.70940171,12.7521367 L1.70940171,9.64102563 L0.153846154,9.64102563 L0.153846154,12.7521367 C0.153846154,13.6076923 0.846068375,14.3076923 1.70940171,14.3076923 L12.5982906,14.3076923 C13.4538461,14.3076923 14.1538462,13.6076923 14.1538462,12.7521367 L14.1538462,1.86324786 C14.1538462,1.00769231 13.4538461,0.307692308 12.5982906,0.307692308 Z" id="Shape"></path>
        </g>
    </g>
</svg>