<?xml version="1.0" encoding="UTF-8"?>
<svg width="34px" height="34px" viewBox="0 0 34 34" version="1.1" xmlns="http://www.w3.org/2000/svg" xmlns:xlink="http://www.w3.org/1999/xlink">
    <!-- Generator: Sketch 55.2 (78181) - https://sketchapp.com -->
    <title>Shape</title>
    <desc>Created with Sketch.</desc>
    <g id="Designs" stroke="none" stroke-width="1" fill="none" fill-rule="evenodd">
        <g id="newcontract-thank-you-2" transform="translate(-417.000000, -187.000000)" fill="#237B01" fill-rule="nonzero">
            <g id="Group-5" transform="translate(162.000000, 162.000000)">
                <g id="suministro">
                    <g id="Group-7">
                        <g id="Group-11-Copy" transform="translate(0.000000, 1.000000)">
                            <path d="M289,41 C289,50.3888669 281.388867,58 272,58 C262.611133,58 255,50.3888669 255,41 C255,31.6111331 262.611133,24 272,24 C281.388867,24 289,31.6111331 289,41 Z M270.027837,49.6858104 L282.677838,37.348545 C283.107388,36.9296144 283.107388,36.2503273 282.677838,35.8313966 L281.122231,34.3142483 C280.692681,33.8952506 279.996175,33.8952506 279.566556,34.3142483 L269.25,44.3756905 L264.433444,39.6782096 C264.003894,39.259279 263.307388,39.259279 262.877769,39.6782096 L261.322162,41.195358 C260.892612,41.6142886 260.892612,42.2935758 261.322162,42.7125064 L268.472163,49.6857434 C268.901781,50.104741 269.598219,50.104741 270.027838,49.6858104 L270.027837,49.6858104 Z" id="Shape"></path>
                        </g>
                    </g>
                </g>
            </g>
        </g>
    </g>
</svg>